<svg width="88" height="88" viewBox="0 0 88 88" fill="none" xmlns="http://www.w3.org/2000/svg">
<g clip-path="url(#clip0_67_1789)">
<path d="M11.3382 42.2297C10.4199 42.2297 10.3586 41.4972 10.2484 40.5693C9.64848 35.4905 10.0036 25.6748 19.0766 16.97C21.6234 14.5283 24.709 12.5993 27.9905 11.3906C31.076 10.2552 33.9045 10.0721 36.5003 11.293C37.6513 11.8302 38.3369 13.1731 37.9206 13.5272C37.1492 14.1864 36.5738 13.4661 33.831 13.7225C29.57 14.1254 25.0274 16.3474 21.6234 19.6193C13.6891 27.2253 13.1993 35.3074 13.0157 39.7391C12.9789 40.8257 11.7423 42.2297 11.3382 42.2297Z" fill="white"/>
<path d="M62.997 52.4119C62.8623 52.534 60.193 55.403 55.6137 55.403C53.5811 55.403 52.0016 54.6461 51.1567 53.2787C50.5078 52.241 50.0302 50.4219 51.4139 47.6749L58.9196 32.7804C59.3727 31.8769 60.0094 31.1566 60.6706 31.9502C61.5154 32.9879 62.1399 34.514 61.6746 35.4174L58.3441 42.0345H62.5072C63.6582 42.0345 64.552 41.9613 64.4541 42.767C64.3316 43.7681 62.0419 45.4896 61.0379 45.4896C61.0379 45.4896 59.9114 45.4896 59.14 45.4896C57.6095 45.4896 58.3564 42.0345 58.3564 42.0345L54.6953 49.3231C54.0954 50.5073 54.0464 51.7404 55.6137 51.7404C58.5768 51.7404 60.6094 49.7992 61.1971 49.2743C61.9562 48.615 62.5072 47.9679 62.8011 48.615C63.1439 49.3597 63.499 51.9357 62.997 52.4119Z" fill="white"/>
<path d="M21.3418 43.4385C20.6684 43.4385 20.0194 43.06 19.6888 42.4252C19.2358 41.5217 19.6153 40.423 20.5214 39.9712L20.9377 39.7637C23.2397 38.6405 29.3373 35.6494 34.48 31.5717C40.5776 26.7493 43.3449 22.1222 42.6837 17.8003C42.4633 16.3841 41.3858 15.0412 40.3205 13.7837C39.4022 12.7337 38.5696 11.8303 39.0104 10.9268C39.341 10.2432 40.9817 10.8536 41.8878 11.3175C44.3611 12.575 45.9284 14.6871 46.3202 17.2631C47.1896 22.9768 43.9693 28.7637 36.7696 34.4529C31.3087 38.7626 24.9539 41.888 22.5662 43.06L22.1622 43.2554C21.8928 43.3775 21.6112 43.4385 21.3418 43.4385Z" fill="white"/>
<path d="M22.4438 55.5006C21.4397 55.5006 21.0969 54.9756 20.5826 54.2675C20.4724 54.121 20.1051 53.6205 20.1051 53.4495C20.1051 53.0466 21.0969 53.1199 22.7376 52.7414C24.9539 52.2409 27.5986 51.2642 29.0679 49.3108C29.3496 48.9323 30.525 47.3818 30.2434 45.3674C30.1699 44.8913 30.0353 43.9146 29.3006 43.1698C27.2435 41.0944 22.1009 42.9013 21.4887 43.2309C21.3785 43.2919 20.3622 42.9379 20.3622 42.9379C20.35 42.9135 23.9621 41.7414 26.4109 40.9112C28.4068 40.2398 30.5128 39.5195 32.1168 40.5572C34.0636 41.8269 33.9779 44.8546 33.9534 45.6238C33.8677 48.5783 32.2147 50.6782 31.3331 51.5816C29.0435 53.9135 25.4559 55.5006 22.4438 55.5006ZM29.3128 43.1943C29.3128 43.1943 29.3128 43.2065 29.3128 43.1943C29.3128 43.2065 29.3128 43.1943 29.3128 43.1943Z" fill="white"/>
<path d="M35.5331 55.5005C34.7127 55.5005 33.4026 54.3406 33.0108 53.5715C32.7536 53.0954 33.6107 53.2297 35.3861 52.3506C38.2636 50.91 40.8104 49.3595 43.4184 46.5881C41.8511 45.8312 40.7247 44.708 40.0635 43.2308C38.0799 38.8357 41.2757 34.0377 41.643 33.415C42.1573 32.5482 42.9654 31.0221 43.5654 31.8401C44.1286 32.6092 45.3163 34.4161 44.7898 35.2829C44.0551 36.516 42.3777 39.4583 43.4062 41.7169C43.9082 42.8157 45.0592 43.5238 46.9203 43.8656C47.5448 43.9877 48.0835 44.0121 48.7325 44.0121C50.2997 44.0121 49.4426 44.9766 48.0345 46.7835C44.4592 51.3373 40.3206 54.3406 35.9861 55.4272C35.8269 55.4883 35.68 55.5005 35.5331 55.5005Z" fill="white"/>
<path d="M77.6292 55.4151C74.5803 55.4151 71.7886 54.4262 69.7561 52.6437C67.6378 50.788 66.4623 48.1754 66.4623 45.3063C66.4623 42.6204 67.4174 39.7636 69.0826 37.4684C71.0785 34.7214 73.9681 32.8657 77.4333 32.121C79.8821 31.596 82.0126 31.6693 83.7758 32.3529C85.4778 33.0122 86.7512 34.2087 87.4491 35.7958C88.845 38.97 87.5838 42.9745 84.5227 45.1232C80.629 47.8457 76.1966 48.1143 73.2335 45.8069C72.4376 45.1842 72.4008 44.4273 72.6335 43.4384C72.9029 42.1321 73.5641 41.7658 74.3477 42.4007C76.9925 44.5128 79.8699 43.9145 82.4045 42.1443C84.2289 40.8624 84.6941 38.6648 84.0819 37.2852C83.3595 35.6371 81.2168 35.0633 78.2169 35.7103C76.1598 36.1498 74.7395 37.0777 73.8824 37.7248C72.9029 38.4695 69.9397 40.7525 69.5846 45.1598C69.4622 46.6981 70.3315 51.7525 77.6414 51.7525C81.0698 51.7525 84.0697 49.8846 84.0819 49.8724C84.9758 49.3962 85.5512 49.4084 85.5145 50.1288C85.4288 51.9967 84.9023 53.2664 84.0085 53.7425C83.9105 53.8036 81.2535 55.4151 77.6292 55.4151Z" fill="white"/>
<path d="M62.8992 67.0377C62.7645 66.8424 62.6298 66.5494 62.3849 66.4639C62.1278 66.3663 61.9564 66.525 61.7605 66.6715C61.5768 66.8058 61.3686 66.9034 61.136 66.9645C60.6952 67.0744 60.1442 67.0988 59.7524 66.8546C59.3851 66.6348 59.2626 66.2075 59.2259 65.8046C59.2014 65.4506 59.2136 65.0965 59.2136 64.7425C59.2136 64.1443 59.2136 63.5583 59.2136 62.96C59.2136 62.5816 59.2136 62.1909 59.2136 61.8124C60.2177 61.8124 61.2217 61.8368 62.238 61.8124C62.3727 61.8124 62.5074 61.7758 62.6053 61.6659C62.74 61.5316 62.7522 61.3729 62.7522 61.1898C62.7522 61.0555 62.7645 60.8968 62.7522 60.7625C62.7155 60.5183 62.5074 60.3474 62.2625 60.3352C61.7972 60.323 61.3319 60.3352 60.8789 60.3352C60.3279 60.3352 59.7769 60.3352 59.2259 60.3352C59.2259 59.9933 59.2259 59.6515 59.2259 59.3096C59.2259 59.0899 59.2259 58.8701 59.2259 58.6504C59.2259 58.5161 59.2381 58.3696 59.1891 58.2353C59.0789 57.9667 58.8218 57.9423 58.5647 57.9423C58.3443 57.9423 58.0749 57.9056 57.8912 58.0521C57.7321 58.1864 57.7076 58.3574 57.7076 58.5405C57.7076 58.7358 57.7076 58.9312 57.7076 59.1143C57.7076 59.5172 57.7076 59.9323 57.7076 60.3352C57.4382 60.3352 57.1811 60.3352 56.9117 60.3352C56.6301 60.3352 56.275 60.2741 56.0668 60.5183C55.9444 60.6648 55.9566 60.8235 55.9566 60.9944C55.9566 61.1409 55.9322 61.3241 55.9811 61.4706C56.1036 61.8368 56.4709 61.8002 56.777 61.8002C57.0831 61.8002 57.3892 61.8002 57.6953 61.8002C57.6953 62.8624 57.6953 63.9245 57.6953 64.9867C57.6953 65.5727 57.6831 66.1465 57.8545 66.7203C58.0014 67.1842 58.2586 67.5993 58.6259 67.9167C59.03 68.2586 59.5442 68.4295 60.0585 68.4784C60.6952 68.5394 61.3441 68.4661 61.9319 68.2098C62.2013 68.0877 62.4584 67.9412 62.691 67.758C62.9359 67.5871 63.0951 67.3185 62.8992 67.0377ZM53.1894 61.2264C52.2466 60.2985 50.7283 60.0544 49.4794 60.4206C49.0998 60.5305 48.7325 60.7136 48.4141 60.9456C48.4141 60.4084 48.4141 59.8712 48.4141 59.3218C48.4141 58.5893 48.4141 57.869 48.4141 57.1365C48.4141 57.0877 48.4141 57.0266 48.4141 56.9778C48.4019 56.7214 48.2182 56.5016 47.9611 56.4894C47.7897 56.4772 47.6183 56.4894 47.4591 56.4894C47.2264 56.4894 47.006 56.5871 46.9326 56.8313C46.8958 56.9289 46.9081 57.0388 46.9081 57.1365C46.9081 57.3074 46.9081 57.4783 46.9081 57.6493C46.9081 58.2597 46.9081 58.8701 46.9081 59.4806C46.9081 60.2985 46.9081 61.1165 46.9081 61.9345C46.9081 62.7891 46.9081 63.6437 46.9081 64.4983C46.9081 65.2064 46.9081 65.9267 46.9081 66.6348C46.9081 67.0377 46.9081 67.4284 46.9081 67.8313C46.9081 68.0388 46.9571 68.2342 47.153 68.3441C47.3244 68.4417 47.5448 68.4051 47.7285 68.4051C47.9366 68.4051 48.1325 68.4173 48.2917 68.2464C48.4509 68.0755 48.4264 67.8313 48.4264 67.6115C48.4264 67.2697 48.4264 66.9401 48.4264 66.5982C48.4264 65.8046 48.4264 65.0233 48.4264 64.2297C48.4264 64.0466 48.4264 63.8635 48.4264 63.6803C48.4509 63.0333 48.7692 62.4228 49.3202 62.0566C49.8835 61.6781 50.6304 61.6415 51.2671 61.788C51.8548 61.9223 52.3323 62.3252 52.5405 62.899C52.7486 63.485 52.6752 64.1931 52.6752 64.8035C52.6752 65.6215 52.6752 66.4273 52.6752 67.2453C52.6752 67.465 52.6752 67.6726 52.6752 67.8923C52.6752 68.0633 52.7486 68.222 52.8956 68.3196C53.0547 68.4295 53.2629 68.4051 53.4588 68.4051C53.667 68.4051 53.8751 68.4295 54.0343 68.2708C54.1445 68.1609 54.1935 68.0266 54.1935 67.8801C54.1935 67.6482 54.1935 67.4284 54.1935 67.1964C54.1935 66.3785 54.1935 65.5605 54.1935 64.7425C54.1935 64.0954 54.2302 63.4118 54.0955 62.7769C53.9241 62.2031 53.6302 61.6537 53.1894 61.2264ZM43.5042 60.3474C43.296 60.3474 43.0266 60.2985 42.8185 60.3718C42.4756 60.4939 42.4879 60.8357 42.4879 61.1287C41.4716 60.323 40.1125 60.0788 38.8513 60.3962C37.7493 60.677 36.7943 61.4706 36.2923 62.4839C35.778 63.5216 35.729 64.8402 36.1331 65.9267C36.5249 66.9889 37.4065 67.8679 38.4595 68.2586C39.7941 68.7469 41.3614 68.5394 42.4756 67.6482C42.4512 68.2464 42.2675 68.869 41.8389 69.3085C41.4226 69.7481 40.7982 69.9922 40.2104 70.0533C39.5737 70.1265 38.9125 70.0411 38.3248 69.7847C38.0554 69.6748 37.7983 69.5161 37.5779 69.333C37.48 69.2475 37.382 69.1376 37.2596 69.0766C37.1249 69.0155 36.9657 69.0155 36.8433 69.0888C36.6963 69.162 36.6106 69.3208 36.5249 69.455C36.4392 69.5893 36.329 69.7236 36.3167 69.8823C36.2923 70.1754 36.5371 70.3585 36.7453 70.5172C36.9779 70.7003 37.2228 70.859 37.48 70.9933C38.6309 71.5671 40.0635 71.6892 41.3002 71.3108C42.5001 70.9323 43.4307 70.0166 43.798 68.8202C43.9695 68.2586 43.9939 67.6848 43.9939 67.0988C43.9939 65.8657 43.9939 64.6448 43.9939 63.4118C43.9939 62.8013 43.9939 62.1909 43.9939 61.5804C43.9939 61.3119 44.0307 61.0189 43.9939 60.7503C43.9572 60.5305 43.7491 60.3474 43.5042 60.3474ZM41.8267 66.293C41.0675 67.0621 39.8064 67.2697 38.8268 66.7935C38.3493 66.5616 37.9452 66.1587 37.7004 65.6948C37.4432 65.2064 37.3575 64.6326 37.4187 64.071C37.5167 63.0089 38.2636 62.0444 39.3289 61.8002C39.8554 61.6781 40.4553 61.7025 40.9573 61.9101C41.4471 62.1054 41.8757 62.4717 42.1573 62.9112C42.8185 63.9489 42.6716 65.4262 41.8267 66.293ZM33.4393 57.6126C33.1822 57.3562 32.7781 57.283 32.4475 57.4295C32.0925 57.5882 31.8965 57.9545 31.9333 58.3329C32.0067 59.1387 33.0965 59.3951 33.5495 58.7236C33.7822 58.3818 33.7332 57.8934 33.4393 57.6126ZM32.8883 58.2963C32.8026 58.3818 32.6679 58.2719 32.7536 58.1742C32.8271 58.0766 32.9618 58.2109 32.8883 58.2963ZM33.072 60.3474C32.7414 60.3474 32.2639 60.2619 32.0925 60.6282C32.0312 60.7503 32.0435 60.8968 32.0435 61.0311C32.0435 61.5682 32.0435 62.1176 32.0435 62.6548C32.0435 63.4606 32.0435 64.2542 32.0435 65.0599C32.0435 65.7558 32.0435 66.4639 32.0435 67.1598C32.0435 67.3674 32.0435 67.5627 32.0435 67.7702C32.0435 67.9534 32.0435 68.1243 32.1782 68.2586C32.3251 68.4173 32.521 68.4173 32.7169 68.4173C32.8761 68.4173 33.072 68.4417 33.2312 68.3929C33.4883 68.3074 33.5618 68.0633 33.5618 67.8313C33.5618 67.3429 33.5618 66.8546 33.5618 66.3662C33.5618 65.5849 33.5618 64.7913 33.5618 64.01C33.5618 63.2775 33.5618 62.5449 33.5618 61.8124C33.5618 61.4828 33.574 61.1531 33.5618 60.8357C33.5618 60.5793 33.3536 60.3474 33.072 60.3474ZM29.913 60.6282C28.8967 60.091 27.4763 60.1276 26.5335 60.7991C26.509 60.5427 26.2886 60.3596 26.0315 60.3474C25.8723 60.3474 25.7132 60.3474 25.554 60.3474C25.2356 60.3474 25.0275 60.5671 25.0275 60.8846C25.0275 61.3241 25.0275 61.7636 25.0275 62.2031C25.0275 62.9722 25.0275 63.7414 25.0275 64.5105C25.0275 65.2675 25.0275 66.0244 25.0275 66.7813C25.0275 67.1598 25.0152 67.5505 25.0275 67.929C25.0275 68.0877 25.1009 68.2464 25.2356 68.3441C25.3948 68.4539 25.5785 68.4417 25.7621 68.4417C25.9336 68.4417 26.1417 68.4661 26.3009 68.3807C26.4601 68.283 26.5458 68.1243 26.5458 67.9412C26.558 67.3918 26.5458 66.8302 26.5458 66.2808C26.5458 65.5727 26.5458 64.8524 26.5458 64.1443C26.5458 63.9001 26.5458 63.6559 26.5825 63.4118C26.6682 62.8257 26.9743 62.2153 27.5253 61.9345C28.0886 61.6415 28.7865 61.7392 29.3375 62.0078C29.6191 62.142 29.9375 61.9955 30.0354 61.7025C30.0844 61.556 30.1211 61.3973 30.1701 61.2508C30.2068 60.9944 30.1334 60.7503 29.913 60.6282Z" fill="white"/>
<path d="M44.0062 88.0001C43.7001 88.0001 42.8797 88.0001 39.7574 86.5229C38.2758 85.827 35.8514 84.5817 32.7047 82.6649C27.9294 79.7471 20.9134 74.888 14.5463 68.2587C10.0404 63.5584 6.53851 58.6749 4.13862 53.706C1.2857 47.8092 -0.0244483 41.7781 0.244927 35.7837C0.795922 23.2454 6.74667 14.9557 11.6322 10.2187C17.387 4.6516 24.9173 0.903539 31.7863 0.171019C39.1574 -0.610335 46.051 1.37968 50.7283 5.62829C55.0138 9.52285 57.2178 15.0534 57.1198 21.6216C57.0341 27.3841 55.2954 33.5983 52.7486 38.9946C52.3201 39.9102 50.7895 40.6183 49.5773 40.8381C48.5733 41.0212 48.1203 40.2276 48.5855 39.3242C51.4385 33.7815 53.3608 26.7981 53.4465 21.5728C53.5323 16.0911 51.7323 11.5129 48.255 8.33861C44.3613 4.78589 38.4962 3.13772 32.1781 3.8092C26.0927 4.45626 19.3828 7.83806 14.2035 12.8436C9.78326 17.1166 4.42024 24.6005 3.91823 35.9424C3.26928 50.7637 13.4933 62.8869 22.1868 70.4563C31.8843 78.8925 41.9736 83.7759 43.9694 84.3009C44.7898 84.0323 48.157 82.433 61.7115 73.5451C70.6376 67.6849 82.2575 59.1755 86.7144 56.5506C87.3511 56.1721 87.3511 56.4529 87.3511 58.4796C87.3511 59.4563 87.4001 60.5795 86.5675 61.1655C82.1473 64.2299 72.2416 71.0179 63.1318 76.9879C46.3571 88.0001 44.8878 88.0001 44.0062 88.0001Z" fill="#49CF0F"/>
</g>
<defs>
<clipPath id="clip0_67_1789">
<rect width="88" height="88" fill="white"/>
</clipPath>
</defs>
</svg>
